<?xml version="1.0" standalone="no"?><!DOCTYPE svg PUBLIC "-//W3C//DTD SVG 1.1//EN" "http://www.w3.org/Graphics/SVG/1.1/DTD/svg11.dtd"><svg t="1618323336945" class="icon" viewBox="0 0 1024 1024" version="1.1" xmlns="http://www.w3.org/2000/svg" p-id="22537" width="32" height="32" xmlns:xlink="http://www.w3.org/1999/xlink"><defs><style type="text/css"></style></defs><path d="M865.28 168.96H240.64c-11.264 0-20.48 9.216-20.48 20.48s9.216 20.48 20.48 20.48h583.68c11.264 0 20.48 9.216 20.48 20.48v133.12h40.96V189.44c0-11.264-9.216-20.48-20.48-20.48zM783.36 819.2H199.68c-11.264 0-20.48-9.216-20.48-20.48v-133.12h-40.96v174.08c0 11.264 9.216 20.48 20.48 20.48h624.64c11.264 0 20.48-9.216 20.48-20.48s-9.216-20.48-20.48-20.48z" p-id="22538" fill="#ffffff"></path><path d="M153.6 560.128l-65.536 96.256c-2.56 4.096 0 9.216 5.12 9.216h131.072c4.608 0 7.68-5.12 5.12-9.216L163.84 560.128c-2.56-3.584-7.68-3.584-10.24 0zM860.16 468.992l-65.536-96.256c-2.56-4.096 0-9.216 5.12-9.216h131.072c4.608 0 7.68 5.12 5.12 9.216L870.4 468.992c-2.56 3.584-7.68 3.584-10.24 0zM701.44 532.48H322.56c-11.264 0-20.48-9.216-20.48-20.48s9.216-20.48 20.48-20.48h378.88c11.264 0 20.48 9.216 20.48 20.48s-9.216 20.48-20.48 20.48z" p-id="22539" fill="#ffffff"></path></svg>