<svg t="1602172441453" class="icon" viewBox="0 0 1024 1024" version="1.1" xmlns="http://www.w3.org/2000/svg" p-id="4482" width="23" height="23">
  <path d="M935.724138 494.344828c0 204.8-188.910345 370.758621-423.724138 370.75862-67.089655 0-130.648276-14.124138-187.144828-38.841379-35.310345-14.124138-157.131034 60.027586-185.37931 38.841379-28.248276-21.186207 38.841379-141.241379 17.655172-167.724138C122.993103 639.117241 88.275862 568.496552 88.275862 494.344828 88.275862 289.544828 277.186207 123.586207 512 123.586207s423.724138 165.958621 423.724138 370.758621z m-605.572414 5.296551c0 14.124138 7.062069 26.482759 19.42069 33.544828s26.482759 7.062069 38.841379 0c12.358621-7.062069 19.42069-19.42069 19.42069-33.544828 0-14.124138-7.062069-26.482759-19.42069-33.544827-12.358621-7.062069-26.482759-7.062069-38.841379 0-12.358621 7.062069-19.42069 19.42069-19.42069 33.544827z m155.365517 0c0 14.124138 7.062069 26.482759 19.42069 33.544828 12.358621 7.062069 26.482759 7.062069 38.841379 0 12.358621-7.062069 19.42069-19.42069 19.42069-33.544828 0-14.124138-7.062069-26.482759-19.42069-33.544827-12.358621-7.062069-26.482759-7.062069-38.841379 0-12.358621 7.062069-19.42069 19.42069-19.42069 33.544827z m153.6 0c0 14.124138 7.062069 26.482759 19.42069 33.544828 12.358621 7.062069 26.482759 7.062069 38.841379 0 12.358621-7.062069 19.42069-19.42069 19.42069-33.544828 0-14.124138-7.062069-26.482759-19.42069-33.544827-12.358621-7.062069-26.482759-7.062069-38.841379 0-12.358621 7.062069-19.42069 19.42069-19.42069 33.544827z" fill="#bfbfbf" p-id="4483"></path>
</svg>