<?xml version="1.0" standalone="no"?><!DOCTYPE svg PUBLIC "-//W3C//DTD SVG 1.1//EN" "http://www.w3.org/Graphics/SVG/1.1/DTD/svg11.dtd"><svg t="1618453733210" class="icon" viewBox="0 0 1024 1024" version="1.1" xmlns="http://www.w3.org/2000/svg" p-id="5431" width="48" height="48" xmlns:xlink="http://www.w3.org/1999/xlink"><defs><style type="text/css"></style></defs><path d="M800 768H224c-17.67 0-32-14.33-32-32V384c0-17.67 14.33-32 32-32h136.94l24.71-74.12C390 264.81 402.23 256 416 256h192c13.77 0 26 8.81 30.36 21.88l24.7 74.12H800c17.67 0 32 14.33 32 32v352c0 17.67-14.33 32-32 32z m-544-64h512V416H640c-13.77 0-26-8.81-30.36-21.88L584.94 320H439.06l-24.71 74.12C410 407.19 397.77 416 384 416H256v288z" p-id="5432" fill="#ffffff"></path><path d="M512 672c-70.58 0-128-57.42-128-128s57.42-128 128-128 128 57.42 128 128-57.42 128-128 128z m0-192c-35.29 0-64 28.71-64 64s28.71 64 64 64 64-28.71 64-64-28.71-64-64-64z" p-id="5433" fill="#ffffff"></path></svg>