<?xml version="1.0" standalone="no"?><!DOCTYPE svg PUBLIC "-//W3C//DTD SVG 1.1//EN" "http://www.w3.org/Graphics/SVG/1.1/DTD/svg11.dtd"><svg t="1618207787602" class="icon" viewBox="0 0 1024 1024" version="1.1" xmlns="http://www.w3.org/2000/svg" p-id="4599" width="26" height="26" xmlns:xlink="http://www.w3.org/1999/xlink"><defs><style type="text/css"></style></defs><path d="M68.945306 933.02784m32.768 0l809.984 0q32.768 0 32.768 32.768l0 0q0 32.768-32.768 32.768l-809.984 0q-32.768 0-32.768-32.768l0 0q0-32.768 32.768-32.768Z" fill="#5ec4cd" p-id="4600"></path><path d="M157.582746 571.31008l-18.06336 18.10432a111.65696 111.65696 0 0 0-24.65792 43.4176L68.535706 815.47264c-3.6864 14.5408-0.94208 26.05056 6.144 32.9728 7.04512 6.92224 18.59584 9.50272 33.13664 5.48864l178.74944-48.82432a115.0976 115.0976 0 0 0 43.45856-25.10848l18.10432-18.10432-40.42752-40.42752-18.06336 18.06336c-3.85024 3.80928-14.7456 10.11712-19.98848 11.50976l-135.86432 37.19168 35.34848-139.34592c1.2288-4.7104 7.3728-15.5648 10.81344-19.00544l18.06336-18.10432-40.42752-40.42752z" fill="#5ec4cd" p-id="4601"></path><path d="M731.637146 20.11136c13.7216 0.32768 27.60704 5.89824 38.42048 16.71168l112.55808 112.64c10.77248 10.73152 16.384 24.576 16.67072 38.37952 0.36864 13.76256-4.58752 27.4432-14.86848 37.76512L345.261466 764.76416l-40.42752-40.42752 10.52672-10.52672-110.96064-110.91968-50.13504-28.18048L693.831066 35.06176c10.28096-10.28096 23.9616-15.27808 37.76512-14.9504z m-75.65312 133.65248L246.179226 563.65056l109.60896 109.7728L765.715866 263.41376l-109.73184-109.69088z m76.84096-76.8l-36.37248 36.37248L806.061466 223.0272l36.4544-36.41344-109.73184-109.64992z" fill="#5ec4cd" p-id="4602"></path></svg>