<svg class="icon" height="23" p-id="4293" t="1601865185466" version="1.1" viewBox="0 0 1024 1024" width="23" xmlns="http://www.w3.org/2000/svg">
  <path d="M992.9 464.6c-0.9-0.9-1.8-1.8-2.8-2.6L770.7 242.5c-26-26-68.6-26-94.7 0-26 26-26 68.6 0 94.7l107.9 107.9H308.2c-36.8 0-66.9 30.1-66.9 66.9 0 36.8 30.1 66.9 66.9 66.9h475.6L676 686.8c-26 26-26 68.6 0 94.7 26 26 68.6 26 94.7 0L990.1 562c0.9-0.8 1.9-1.7 2.8-2.6 13-13 19.5-30.2 19.5-47.4s-6.5-34.4-19.5-47.4z" fill="#ffffff" p-id="4294"></path>
  <path d="M78.5 512m-66.9 0a66.9 66.9 0 1 0 133.8 0 66.9 66.9 0 1 0-133.8 0Z" fill="#ffffff" p-id="4295"></path>
</svg>