<svg t="1603427758952" class="icon" viewBox="0 0 1024 1024" version="1.1" xmlns="http://www.w3.org/2000/svg" p-id="22976" width="40" height="40">
  <path d="M 251.345 484.073 s -16.2909 16.2909 -37.2364 16.2909 s -37.2364 -16.2909 -37.2364 -16.2909 c 0 -60.5091 18.6182 -134.982 25.6 -160.582 c -6.98182 -4.65454 -9.30909 -9.30909 -9.30909 -18.6182 s 6.98182 -18.6182 16.2909 -20.9455 v -41.8909 l 11.6364 6.98182 v 34.9091 c 9.30909 2.32727 16.2909 11.6364 16.2909 20.9455 c 0 6.98182 -4.65454 13.9636 -9.30909 18.6182 c 4.65454 16.2909 13.9636 51.2 18.6182 93.0909 c 2.32727 20.9455 4.65454 44.2182 4.65455 67.4909 Z" fill="#f6ef37" p-id="22977"></path>
  <path d="M 281.6 470.109 v 25.6 c 2.32727 23.2727 9.30909 46.5455 25.6 67.4909 c 9.30909 11.6364 13.9636 11.6364 27.9273 6.98182 c 4.65454 0 11.6364 20.9455 13.9636 25.6 c 16.2909 37.2364 44.2182 81.4545 95.4182 100.073 c 34.9091 13.9636 74.4727 16.2909 109.382 6.98182 c 37.2364 -11.6364 67.4909 -37.2364 90.7636 -69.8182 c 20.9455 -27.9273 27.9273 -46.5455 32.5818 -53.5273 c 2.32727 -2.32727 2.32727 -6.98182 4.65454 -6.98182 s 6.98182 2.32727 9.30909 2.32727 c 6.98182 0 11.6364 -4.65454 16.2909 -9.30909 c 13.9636 -18.6182 23.2727 -41.8909 25.6 -67.4909 v -25.6 c 0 -13.9636 -9.30909 -25.6 -25.6 -25.6 h -2.32727 l -2.32727 -4.65455 s 0 -11.6364 2.32727 -16.2909 c 0 -18.6182 2.32727 -39.5636 4.65455 -58.1818 c 0 -6.98182 2.32727 -16.2909 2.32727 -23.2727 l -48.8727 -13.9636 c -2.32727 0 -23.2727 -4.65454 -23.2727 -4.65454 c -11.6364 -2.32727 -79.1273 -6.98182 -144.291 -9.30909 c -51.2 0 -100.073 4.65454 -111.709 6.98182 c -4.65454 0 -11.6364 2.32727 -13.9636 2.32727 c 0 0 -37.2364 6.98182 -51.2 13.9636 l -13.9636 4.65455 c 0 18.6182 2.32727 37.2364 2.32727 55.8545 c 0 13.9636 2.32727 30.2545 2.32727 44.2182 h -2.32727 c -16.2909 0 -23.2727 13.9636 -25.6 25.6 Z m 76.8 -39.5636 c 41.8909 0 79.1273 -2.32727 111.709 -9.30909 c 11.6364 -2.32727 25.6 -4.65454 39.5636 -6.98182 c 41.8909 -9.30909 74.4727 -25.6 102.4 -46.5455 c 13.9636 16.2909 32.5818 30.2545 60.5091 41.8909 h 2.32727 v 11.6364 c -2.32727 37.2364 -6.98182 86.1091 -13.9636 111.709 c -6.98182 30.2545 -58.1818 151.273 -158.255 148.945 c -16.2909 0 -32.5818 -4.65454 -46.5455 -9.30909 c -51.2 -16.2909 -79.1273 -65.1636 -100.073 -130.327 c -9.30909 -27.9273 -13.9636 -60.5091 -13.9636 -97.7455 c 0 -6.98182 0 -16.2909 -2.32727 -23.2727 c 6.98182 9.30909 13.9636 9.30909 18.6182 9.30909 Z" fill="#f3ca7e" p-id="22978"></path>
  <path d="M 702.836 256 c 0 -13.9636 0 -6.98182 -2.32727 -20.9455 c -2.32727 -6.98182 -2.32727 -11.6364 -9.30909 -13.9636 c -6.98182 -4.65454 -13.9636 -9.30909 -20.9455 -11.6364 c -18.6182 -9.30909 -37.2364 -16.2909 -58.1818 -18.6182 c -44.2182 -9.30909 -88.4364 -11.6364 -132.655 -9.30909 c -18.6182 0 -37.2364 2.32727 -55.8545 4.65454 c -30.2545 4.65454 -60.5091 11.6364 -88.4364 27.9273 c -9.30909 2.32727 -16.2909 6.98182 -18.6182 18.6182 c -6.98182 27.9273 -6.98182 53.5273 -6.98182 81.4545 v 2.32727 c 16.2909 -6.98182 34.9091 -11.6364 53.5273 -13.9636 c 11.6364 -2.32727 25.6 -4.65454 39.5636 -4.65455 c 9.30909 -2.32727 46.5455 -4.65454 81.4545 -4.65454 c 32.5818 0 65.1636 0 100.073 2.32727 c 23.2727 2.32727 48.8727 4.65454 72.1455 9.30909 c 4.65454 0 11.6364 2.32727 16.2909 4.65455 l 32.5818 9.30909 c 0 -16.2909 0 -48.8727 -2.32727 -62.8364 Z" fill="#1fdeae" p-id="22979"></path>
  <path d="M 293.236 228.073 c 4.65454 -20.9455 18.6182 -27.9273 30.2545 -34.9091 c 27.9273 -16.2909 58.1818 -25.6 97.7455 -30.2545 c 16.2909 -2.32727 76.8 -4.65454 86.1091 -4.65455 c 39.5636 0 74.4727 2.32727 109.382 9.30909 c 23.2727 4.65454 44.2182 11.6364 62.8364 20.9455 c 6.98182 4.65454 23.2727 13.9636 23.2727 13.9636 c 11.6364 6.98182 16.2909 18.6182 18.6182 27.9273 c 2.32727 11.6364 2.32727 23.2727 2.32727 32.5818 v 9.30909 s 81.4545 -46.5455 121.018 -69.8182 c -6.98182 -4.65454 -9.30909 -6.98182 -13.9636 -9.30909 c -102.4 -58.1818 -204.8 -116.364 -309.527 -174.545 c -11.6364 -6.98182 -18.6182 -6.98182 -30.2545 0 c -100.073 58.1818 -202.473 114.036 -302.545 172.218 c -6.98182 4.65454 -11.6364 6.98182 -20.9455 13.9636 c 18.6182 9.30909 118.691 69.8182 118.691 69.8182 c 2.32727 -18.6182 4.65454 -32.5818 6.98182 -46.5455 Z M 833.164 809.891 c -51.2 -32.5818 -174.545 -76.8 -176.873 -76.8 c 0 0 -30.2545 62.8364 -41.8909 88.4364 c -9.30909 16.2909 -23.2727 18.6182 -32.5818 2.32727 c -9.30909 -13.9636 -32.5818 -46.5455 -34.9091 -51.2 c -6.98182 -9.30909 -13.9636 -11.6364 -23.2727 -2.32727 c -2.32727 2.32727 -11.6364 11.6364 -16.2909 11.6364 c -4.65454 0 -13.9636 -9.30909 -16.2909 -11.6364 c -9.30909 -9.30909 -13.9636 -9.30909 -23.2727 2.32727 s -23.2727 34.9091 -32.5818 44.2182 c -18.6182 23.2727 -34.9091 18.6182 -44.2182 0 c -11.6364 -30.2545 -34.9091 -86.1091 -34.9091 -86.1091 c -2.32727 0 -125.673 44.2182 -176.873 76.8 c -116.364 72.1455 -114.036 197.818 -114.036 197.818 h 891.345 c 2.32727 4.65454 16.2909 -102.4 -123.345 -195.491 Z" fill="#1fdeae" p-id="22980"></path>
  <path d="M 958.836 1024 c -2.32727 0 -2.32727 0 0 0 H 65.1636 c -9.30909 0 -16.2909 -6.98182 -16.2909 -13.9636 c 0 -2.32727 0 -34.9091 13.9636 -76.8 c 13.9636 -39.5636 41.8909 -93.0909 107.055 -134.982 c 51.2 -34.9091 179.2 -79.1273 181.527 -79.1273 c 6.98182 -2.32727 13.9636 2.32727 16.2909 6.98182 c 0 2.32727 0 2.32727 6.98182 13.9636 c 6.98182 18.6182 20.9455 51.2 30.2545 72.1455 c 2.32727 4.65454 4.65454 6.98182 4.65454 6.98182 s 4.65454 -2.32727 11.6364 -9.30909 c 4.65454 -6.98182 13.9636 -20.9455 23.2727 -30.2545 c 4.65454 -4.65454 6.98182 -9.30909 9.30909 -13.9636 c 4.65454 -6.98182 11.6364 -13.9636 23.2727 -13.9636 s 18.6182 6.98182 23.2727 11.6364 l 4.65455 4.65454 c 2.32727 -2.32727 4.65454 -2.32727 4.65454 -4.65454 c 6.98182 -6.98182 16.2909 -11.6364 23.2727 -11.6364 c 9.30909 0 16.2909 4.65454 23.2727 13.9636 c 2.32727 2.32727 9.30909 11.6364 16.2909 23.2727 c 6.98182 9.30909 13.9636 20.9455 18.6182 27.9273 l 4.65454 4.65455 s 2.32727 -2.32727 2.32727 -4.65455 c 4.65454 -9.30909 41.8909 -88.4364 44.2182 -88.4364 c 2.32727 -4.65454 9.30909 -9.30909 16.2909 -6.98182 c 4.65454 0 130.327 44.2182 181.527 79.1273 c 32.5818 20.9455 60.5091 46.5455 81.4545 72.1455 c 16.2909 20.9455 30.2545 44.2182 39.5636 67.4909 c 6.98182 16.2909 9.30909 34.9091 11.6364 51.2 c 0 2.32727 2.32727 18.6182 0 25.6 c -2.32727 2.32727 -9.30909 6.98182 -13.9636 6.98182 Z M 81.4545 993.745 h 861.091 c -2.32727 -30.2545 -18.6182 -102.4 -118.691 -169.891 c -39.5636 -25.6 -128 -60.5091 -160.582 -72.1455 c -9.30909 18.6182 -27.9273 55.8545 -37.2364 76.8 c -4.65454 6.98182 -11.6364 20.9455 -27.9273 23.2727 c -6.98182 0 -20.9455 0 -32.5818 -16.2909 c -4.65454 -6.98182 -11.6364 -16.2909 -18.6182 -27.9273 c -6.98182 -11.6364 -13.9636 -18.6182 -16.2909 -23.2727 l -6.98182 6.98182 c -6.98182 6.98182 -11.6364 9.30909 -18.6182 9.30909 c -4.65454 0 -11.6364 -2.32727 -18.6182 -9.30909 c -2.32727 -2.32727 -6.98182 -4.65454 -6.98182 -6.98182 c -2.32727 4.65454 -6.98182 9.30909 -9.30909 13.9636 c -6.98182 11.6364 -16.2909 23.2727 -23.2727 32.5818 c -16.2909 20.9455 -30.2545 23.2727 -39.5636 20.9455 c -11.6364 -2.32727 -23.2727 -9.30909 -27.9273 -25.6 c -9.30909 -20.9455 -20.9455 -53.5273 -30.2545 -72.1455 c -34.9091 11.6364 -121.018 44.2182 -160.582 72.1455 c -86.1091 51.2 -102.4 132.655 -107.055 167.564 Z m 642.327 -705.164 c -2.32727 0 -4.65454 0 -6.98182 -2.32727 c -4.65454 -2.32727 -6.98182 -6.98182 -6.98182 -13.9636 v -9.30909 c 0 -9.30909 0 -18.6182 -2.32727 -30.2545 c -2.32727 -9.30909 -4.65454 -13.9636 -11.6364 -18.6182 c -6.98182 -4.65454 -16.2909 -11.6364 -20.9455 -13.9636 c -18.6182 -9.30909 -37.2364 -16.2909 -58.1818 -20.9455 c -32.5818 -6.98182 -67.4909 -9.30909 -104.727 -9.30909 c -9.30909 0 -67.4909 2.32727 -83.7818 4.65455 c -37.2364 4.65454 -65.1636 13.9636 -90.7636 27.9273 c -11.6364 6.98182 -18.6182 11.6364 -23.2727 25.6 c -2.32727 11.6364 -4.65454 25.6 -4.65454 41.8909 c 0 4.65454 -2.32727 9.30909 -6.98182 13.9636 c -4.65454 2.32727 -11.6364 2.32727 -16.2909 0 c 0 0 -102.4 -58.1818 -118.691 -69.8182 c -11.6364 0 -13.9636 -4.65454 -13.9636 -9.30909 s 2.32727 -11.6364 6.98182 -13.9636 c 2.32727 -2.32727 4.65454 -2.32727 6.98182 -4.65455 c 4.65454 -2.32727 9.30909 -6.98182 13.9636 -9.30909 c 20.9455 -11.6364 44.2182 -23.2727 65.1636 -37.2364 C 325.818 95.4182 404.945 48.8727 486.4 4.65454 c 16.2909 -9.30909 30.2545 -9.30909 44.2182 0 c 69.8182 39.5636 141.964 81.4545 211.782 121.018 c 32.5818 18.6182 62.8364 37.2364 95.4182 55.8545 c 4.65454 2.32727 9.30909 4.65454 13.9636 9.30909 l 2.32727 2.32727 c 4.65454 2.32727 6.98182 6.98182 6.98182 11.6364 s -2.32727 9.30909 -6.98182 11.6364 c -37.2364 20.9455 -121.018 69.8182 -121.018 69.8182 c -4.65454 2.32727 -6.98182 2.32727 -9.30909 2.32727 Z m -216.436 -146.618 c 39.5636 0 76.8 4.65454 111.709 11.6364 c 25.6 4.65454 46.5455 11.6364 67.4909 23.2727 c 6.98182 4.65454 23.2727 13.9636 25.6 13.9636 c 16.2909 11.6364 20.9455 25.6 25.6 37.2364 c 2.32727 6.98182 2.32727 13.9636 2.32727 20.9455 c 20.9455 -11.6364 51.2 -30.2545 76.8 -44.2182 c -30.2545 -16.2909 -58.1818 -32.5818 -88.4364 -48.8727 c -69.8182 -39.5636 -141.964 -79.1273 -211.782 -121.018 c -6.98182 -4.65454 -9.30909 -4.65454 -13.9636 0 c -83.7818 44.2182 -162.909 88.4364 -242.036 132.655 L 197.818 202.473 c 23.2727 13.9636 55.8545 32.5818 76.8 44.2182 c 0 -9.30909 2.32727 -16.2909 4.65454 -23.2727 c 6.98182 -27.9273 25.6 -37.2364 37.2364 -44.2182 c 27.9273 -16.2909 60.5091 -25.6 102.4 -32.5818 c 18.6182 -2.32727 79.1273 -4.65454 88.4364 -4.65455 Z" fill="#8a8a8a" p-id="22981"></path>
  <path d="M 408.231 479.227 m -26.6246 0 a 26.6246 26.6246 0 1 0 53.2496 0 a 26.6246 26.6246 0 1 0 -53.2496 0 Z" fill="#2c2c2c" p-id="22982"></path>
  <path d="M 598.02 479.227 m -26.6246 0 a 26.6246 26.6246 0 1 0 53.2496 0 a 26.6246 26.6246 0 1 0 -53.2496 0 Z" fill="#2c2c2c" p-id="22983"></path>
  <path d="M 551.564 609.745 s -20.9455 13.9636 -44.2182 13.9636 s -44.2182 -13.9636 -44.2182 -13.9636 s 20.9455 6.98182 44.2182 6.98182 s 44.2182 -6.98182 44.2182 -6.98182 Z" fill="#f44e72" p-id="22984"></path>
  <path d="M 421.236 114.036 c -4.65454 -6.98182 -2.32727 -16.2909 4.65454 -18.6182 l 58.1818 -32.5818 c 6.98182 -4.65454 16.2909 -2.32727 18.6182 4.65454 c 4.65454 6.98182 2.32727 16.2909 -4.65454 18.6182 L 442.182 121.018 c -6.98182 2.32727 -16.2909 0 -20.9455 -6.98182 Z" fill="#fcfcff" p-id="22985"></path>
  <path d="M 393.309 130.327 m -13.9636 0 a 13.9636 13.9636 0 1 0 27.9273 0 a 13.9636 13.9636 0 1 0 -27.9273 0 Z" fill="#fcfcff" p-id="22986"></path>
</svg>