<svg t="1603427826871" class="icon" viewBox="0 0 1024 1024" version="1.1" xmlns="http://www.w3.org/2000/svg" p-id="23171" width="40" height="40">
  <path d="M582.0928 754.2784l-140.288-0.7168v-162.9184h140.288v163.6352z" fill="#FFDDB8" p-id="23172"></path>
  <path d="M582.0928 651.008l-140.288 82.688v-143.0016h140.288v60.3136z" fill="#EBCCAA" p-id="23173"></path>
  <path d="M512.4096 206.7968c-0.6144 0-1.0752-0.1024-1.6896-0.1024C407.7056 206.6944 317.44 306.9952 317.44 430.7968s123.1872 224.1024 193.28 224.1024c0.6144 0 1.0752 0 1.6896-0.1024v-448z" fill="#F5D4B1" p-id="23174"></path>
  <path d="M512.4096 206.7968c0.6144 0 1.0752-0.1024 1.6896-0.1024 103.0144 0 193.28 100.3008 193.28 224.1024s-123.1872 224.1024-193.28 224.1024c-0.6144 0-1.0752 0-1.6896-0.1024v-448z" fill="#FFDDB8" p-id="23175"></path>
  <path d="M295.7824 367.616c-3.2768-58.2144-6.6048-140.288 16.5888-191.5904 23.296-51.3024 146.2784-106.0864 199.424-106.0864s156.2112 51.3024 179.5072 82.1248c13.7216 18.1248 34.7136 117.4016 33.1776 201.8816-1.024 59.392-10.2912 82.2784-19.9168 99.1744-4.8128 8.4992 6.6048-109.5168-99.6864-201.8816-16.5888-10.2912-32.1024 6.4-53.1968 10.2912-35.2768 6.5024-66.5088 6.8096-93.0816 6.8096-30.976 0-88.1152 39.7824-103.0144 78.6944-26.4192 68.7104-19.9168 119.808-19.9168 119.808s-36.5568-41.0624-39.8848-99.2256z" fill="#333333" p-id="23176"></path>
  <path d="M294.6048 433.4592c9.6768 31.0272 26.5216 53.4016 42.0864 48.5376 15.5648-4.864 20.2752-33.9456 10.5984-64.9728l-3.6352 1.1264c-9.6768-31.0272-26.5216-53.4016-42.0864-48.5376-15.5648 4.864-20.2752 33.9456-10.5984 64.9728l3.6352-1.1264z" fill="#F5D4B1" p-id="23177"></path>
  <path d="M512.1024 723.5072L378.624 747.52s-85.504 37.5808-109.5168 75.3152c-24.0128 37.5808-61.5936 133.4784-61.5936 133.4784H512v-232.8064h0.1024z" fill="#E0ECFF" p-id="23178"></path>
  <path d="M512.4096 723.5072l133.4784 24.0128s85.504 37.5808 109.5168 75.3152c24.0128 37.5808 61.5936 133.4784 61.5936 133.4784h-304.5888v-232.8064z" fill="#FFFFFF" p-id="23179"></path>
  <path d="M495.3088 853.504l-56.8832-126.6176 71.7824-3.3792 75.3152 3.3792-58.2144 126.6176 10.1888 102.7072h-51.2l9.0112-102.7072z" fill="#7FB2FF" p-id="23180"></path>
  <path d="M432.4864 675.3792l78.6944 47.9232-130.0992 102.7072v-102.7072l51.4048-47.9232z m157.3888 0l-78.6944 47.9232 129.9968 102.7072v-102.7072l-51.3024-47.9232z" fill="#FFFFFF" p-id="23181"></path>
  <path d="M483.4816 375.3984H371.5072c-7.4752 0-13.6192 5.4784-13.6192 12.1856v63.8976c0 6.7072 6.0928 12.1856 13.6192 12.1856h112.0256c7.4752 0 13.6192-5.4784 13.6192-12.1856V387.584c-0.0512-6.7072-6.144-12.1856-13.6704-12.1856z m-0.768 67.0208c0 6.7072-6.0928 12.1856-13.6192 12.1856H385.8944c-7.4752 0-13.6192-5.4784-13.6192-12.1856v-45.7216c0-6.7072 6.0928-12.1856 13.6192-12.1856h83.2c7.4752 0 13.6192 5.4784 13.6192 12.1856v45.7216z m173.9776-67.0208h-112.0256c-7.4752 0-13.6192 5.4784-13.6192 12.1856v63.8976c0 6.7072 6.0928 12.1856 13.6192 12.1856h112.0256c7.4752 0 13.6192-5.4784 13.6192-12.1856V387.584c-0.1024-6.7072-6.0928-12.1856-13.6192-12.1856z m-0.8704 67.0208c0 6.7072-6.0928 12.1856-13.6192 12.1856h-83.2c-7.4752 0-13.6192-5.4784-13.6192-12.1856v-45.7216c0-6.7072 6.0928-12.1856 13.6192-12.1856h83.2c7.4752 0 13.6192 5.4784 13.6192 12.1856v45.7216z" fill="#333333" p-id="23182"></path>
  <path d="M490.2912 416.2048h47.5136v13.6192h-47.5136v-13.6192z" fill="#333333" p-id="23183"></path>
</svg>